HIERARCHY
ROOT Hips
{
	OFFSET -0.001795 -0.223333 0.028219
	CHANNELS 6 Xposition Yposition Zposition Zrotation Yrotation Xrotation 
	JOINT LeftUpLeg
	{
		OFFSET 0.069520 -0.091406 -0.006815
		CHANNELS 3 Zrotation Yrotation Xrotation
		JOINT LeftLeg
		{
			OFFSET 0.034277 -0.375199 -0.004496
			CHANNELS 3 Zrotation Yrotation Xrotation
			JOINT LeftFoot
			{
				OFFSET -0.013596 -0.397961 -0.043693
				CHANNELS 3 Zrotation Yrotation Xrotation
				JOINT LeftToe
				{
					OFFSET 0.026358 -0.055791 0.119288
					CHANNELS 3 Zrotation Yrotation Xrotation
					End Site
					{
						OFFSET 0.000000 0.000000 0.000000
					}
				}
			}
		}
	}
	JOINT RightUpLeg
	{
		OFFSET -0.067670 -0.090522 -0.004320
		CHANNELS 3 Zrotation Yrotation Xrotation
		JOINT RightLeg
		{
			OFFSET -0.038290 -0.382569 -0.008850
			CHANNELS 3 Zrotation Yrotation Xrotation
			JOINT RightFoot
			{
				OFFSET 0.015774 -0.398415 -0.042312
				CHANNELS 3 Zrotation Yrotation Xrotation
				JOINT RightToe
				{
					OFFSET -0.025372 -0.048144 0.123348
					CHANNELS 3 Zrotation Yrotation Xrotation
					End Site
					{
						OFFSET 0.000000 0.000000 0.000000
					}
				}
			}
		}
	}
	JOINT Spine
	{
		OFFSET -0.002533 0.108963 -0.026696
		CHANNELS 3 Zrotation Yrotation Xrotation
		JOINT Spine1
		{
			OFFSET 0.005487 0.135180 0.001092
			CHANNELS 3 Zrotation Yrotation Xrotation
			JOINT Spine2
			{
				OFFSET 0.001457 0.052922 0.025425
				CHANNELS 3 Zrotation Yrotation Xrotation
				JOINT Neck
				{
					OFFSET -0.002778 0.213870 -0.042857
					CHANNELS 3 Zrotation Yrotation Xrotation
					JOINT Head
					{
						OFFSET 0.005152 0.064970 0.051349
						CHANNELS 3 Zrotation Yrotation Xrotation
						End Site
						{
							OFFSET 0.000000 0.000000 0.000000
						}
					}
				}
				JOINT LeftShoulder
				{
					OFFSET 0.078845 0.121749 -0.034090
					CHANNELS 3 Zrotation Yrotation Xrotation
					JOINT LeftArm
					{
						OFFSET 0.090977 0.030469 -0.008868
						CHANNELS 3 Zrotation Yrotation Xrotation
						JOINT LeftForeArm
						{
							OFFSET 0.259612 -0.012772 -0.027456
							CHANNELS 3 Zrotation Yrotation Xrotation
							JOINT LeftHand
							{
								OFFSET 0.249234 0.008986 -0.001171
								CHANNELS 3 Zrotation Yrotation Xrotation
								End Site
								{
									OFFSET 0.000000 0.000000 0.000000
								}
							}
						}
					}
				}
				JOINT RightShoulder
				{
					OFFSET -0.081759 0.118833 -0.038615
					CHANNELS 3 Zrotation Yrotation Xrotation
					JOINT RightArm
					{
						OFFSET -0.096012 0.032551 -0.009143
						CHANNELS 3 Zrotation Yrotation Xrotation
						JOINT RightForeArm
						{
							OFFSET -0.253742 -0.013329 -0.021401
							CHANNELS 3 Zrotation Yrotation Xrotation
							JOINT RightHand
							{
								OFFSET -0.255298 0.007772 -0.005559
								CHANNELS 3 Zrotation Yrotation Xrotation
								End Site
								{
									OFFSET 0.000000 0.000000 0.000000
								}
							}
						}
					}
				}
			}
		}
	}
}
MOTION
Frames: 15
Frame Time: 0.050000
-0.022810 0.928531 -0.027271 2.068479 -8.953128 -5.249930 2.674961 0.346601 3.713735 -2.454778 0.305481 3.481337 4.042775 9.210448 3.201950 0.000000 0.000000 0.000000 -7.631519 0.246012 1.237160 2.576378 -0.028246 7.494171 -3.322067 -8.732017 1.500448 0.000000 0.000000 0.000000 6.984526 -1.150843 13.771103 -7.814675 2.490613 -22.601457 -4.836262 8.701604 25.193332 13.102137 -3.060293 -38.620769 0.000000 0.000000 0.000000 -22.572982 -14.323978 5.888189 -45.061025 -6.328946 -4.762058 -12.908138 -28.652183 4.410755 0.000000 0.000000 0.000000 30.307668 0.865514 -0.101560 53.825342 8.594832 -4.146286 13.604992 25.029560 4.136251 0.000000 0.000000 0.000000 
-0.022596 0.928581 -0.027626 2.057517 -8.767473 -5.282934 2.603712 0.332319 3.548399 -2.552951 0.319807 3.830235 3.965787 9.029894 3.008036 0.000000 0.000000 0.000000 -7.675273 0.243707 1.222150 2.502338 -0.011403 7.725339 -3.360132 -8.803718 1.457386 0.000000 0.000000 0.000000 6.986964 -1.172287 14.007783 -7.822214 2.496239 -22.614326 -4.821202 8.589954 25.272972 12.978072 -3.063233 -38.331935 0.000000 0.000000 0.000000 -22.721145 -14.503078 5.996620 -44.987763 -6.331979 -4.758368 -13.070323 -28.978415 4.506269 0.000000 0.000000 0.000000 30.426815 0.935196 -0.052361 53.517118 8.564317 -4.163455 13.835639 25.210943 4.219137 0.000000 0.000000 0.000000 
-0.022333 0.928668 -0.027740 2.117995 -8.693315 -5.269543 2.511445 0.318752 3.381215 -2.659079 0.337113 4.009144 3.916481 8.921382 2.945728 0.000000 0.000000 0.000000 -7.782904 0.249845 1.149613 2.410436 0.012492 8.021852 -3.313116 -8.589745 1.196754 0.000000 0.000000 0.000000 7.036510 -1.185862 14.095778 -7.826348 2.503361 -22.480893 -4.959748 8.573888 25.240116 12.989590 -3.086168 -38.211452 0.000000 0.000000 0.000000 -22.715799 -14.643354 6.063348 -44.955386 -6.361522 -4.737866 -13.529688 -29.183602 4.657935 0.000000 0.000000 0.000000 30.500926 0.819899 -0.120251 53.296570 8.560603 -4.160501 13.976902 25.294993 4.266753 0.000000 0.000000 0.000000 
-0.022113 0.928375 -0.027482 2.161584 -8.525872 -5.246550 2.416661 0.313612 3.327787 -2.694051 0.341472 4.043067 3.838110 8.738924 2.771189 0.000000 0.000000 0.000000 -7.897972 0.250623 1.253639 2.324380 0.028086 8.137374 -3.326382 -8.564111 1.057173 0.000000 0.000000 0.000000 7.161816 -1.204270 14.115197 -7.972894 2.547041 -22.482781 -5.014727 8.545571 25.456418 12.872506 -3.071053 -38.011744 0.000000 0.000000 0.000000 -22.854275 -14.772193 6.131678 -44.953261 -6.468247 -4.712794 -13.555689 -29.370069 4.697056 0.000000 0.000000 0.000000 30.682346 0.874767 -0.050734 53.121195 8.579561 -4.182093 14.210642 25.481025 4.360860 0.000000 0.000000 0.000000 
-0.021941 0.928097 -0.026995 2.282834 -8.437552 -5.354018 2.298219 0.334404 3.561007 -2.760419 0.351776 3.881204 3.759424 8.576252 2.720893 0.000000 0.000000 0.000000 -8.129099 0.256695 1.409203 2.218891 0.050252 8.311867 -3.309753 -8.464298 0.909220 0.000000 0.000000 0.000000 7.136379 -1.199273 14.102878 -7.941350 2.544890 -22.375589 -5.069806 8.625538 25.436141 12.845686 -3.073125 -37.829307 0.000000 0.000000 0.000000 -22.802730 -14.887172 6.151138 -45.039159 -6.382964 -4.738387 -13.960449 -29.294384 4.784709 0.000000 0.000000 0.000000 30.907781 0.731380 -0.100176 53.011093 8.495303 -4.236023 14.369777 25.229027 4.352353 0.000000 0.000000 0.000000 
-0.021816 0.927701 -0.026573 2.385214 -8.164800 -5.423468 2.168925 0.360113 3.863718 -2.775789 0.351642 3.526678 3.619878 8.299773 2.703444 0.000000 0.000000 0.000000 -8.352685 0.258882 1.539174 2.206219 0.056107 8.508317 -3.277903 -8.387152 0.890874 0.000000 0.000000 0.000000 7.140512 -1.206164 14.143698 -7.930604 2.549795 -22.323907 -5.181728 8.489954 25.399238 12.863786 -3.080820 -37.814231 0.000000 0.000000 0.000000 -22.829184 -15.038862 6.223940 -45.065087 -6.345174 -4.746264 -14.148471 -29.281950 4.829351 0.000000 0.000000 0.000000 31.162015 0.687887 -0.125650 52.915270 8.363853 -4.295440 14.356282 24.984952 4.299237 0.000000 0.000000 0.000000 
-0.021651 0.927358 -0.026397 2.456538 -7.958124 -5.454114 2.119650 0.369837 3.986098 -2.888799 0.368087 3.310425 3.610926 8.287816 2.717344 0.000000 0.000000 0.000000 -8.542751 0.262932 1.576538 2.260164 0.053003 8.736198 -3.335904 -8.480771 0.781287 0.000000 0.000000 0.000000 7.125116 -1.208794 14.157886 -7.931590 2.553632 -22.336205 -5.199388 8.344721 25.307207 12.905466 -3.128044 -37.647514 0.000000 0.000000 0.000000 -22.895095 -15.144790 6.285791 -45.161158 -6.332567 -4.748893 -14.374685 -29.159227 4.866957 0.000000 0.000000 0.000000 31.336784 0.737535 -0.108805 52.991527 8.297085 -4.317117 14.353559 24.726593 4.243499 0.000000 0.000000 0.000000 
-0.021420 0.927237 -0.026494 2.548843 -7.802708 -5.560446 1.900078 0.391061 4.192271 -2.780048 0.349385 3.104696 3.561636 8.194008 2.726043 0.000000 0.000000 0.000000 -8.624857 0.260032 1.669807 2.214682 0.064591 8.896507 -3.396794 -8.697018 0.957218 0.000000 0.000000 0.000000 7.022399 -1.212543 14.339677 -7.813313 2.522335 -22.399945 -5.216429 8.232350 25.182542 12.760524 -3.107185 -37.382527 0.000000 0.000000 0.000000 -22.833097 -15.253164 6.342668 -45.262528 -6.329230 -4.751597 -14.660286 -29.034496 4.918459 0.000000 0.000000 0.000000 31.439400 0.838197 -0.052622 53.098065 8.244359 -4.333980 14.255842 24.456793 4.165156 0.000000 0.000000 0.000000 
-0.021186 0.927329 -0.026716 2.608393 -7.712472 -5.584276 1.850728 0.420533 4.520960 -2.807946 0.353726 2.571265 3.516965 8.167291 3.055162 0.000000 0.000000 0.000000 -8.645422 0.259317 1.627362 2.183489 0.073015 9.010309 -3.452086 -8.915350 1.178687 0.000000 0.000000 0.000000 7.005991 -1.213981 14.363920 -7.769733 2.511571 -22.405007 -5.291923 8.061567 25.119770 12.866688 -3.208425 -37.175520 0.000000 0.000000 0.000000 -22.721707 -15.410466 6.461924 -45.439468 -6.426865 -4.738739 -14.706285 -28.789906 4.890952 0.000000 0.000000 0.000000 31.688653 0.939338 -0.045452 53.053201 8.246290 -4.313918 14.210203 24.094450 4.073953 0.000000 0.000000 0.000000 
-0.021050 0.927367 -0.027026 2.646669 -7.811337 -5.664024 1.812807 0.452933 4.857113 -2.836274 0.359526 2.222622 3.587921 8.332071 3.178661 0.000000 0.000000 0.000000 -8.750048 0.264870 1.732873 2.292139 0.052871 8.924575 -3.428259 -8.915956 1.323378 0.000000 0.000000 0.000000 6.951871 -1.213475 14.483404 -7.690810 2.487910 -22.423340 -5.366760 7.940485 24.908549 12.778146 -3.258378 -36.745701 0.000000 0.000000 0.000000 -22.562181 -15.476886 6.539141 -45.587722 -6.522868 -4.718861 -14.608268 -28.451006 4.811007 0.000000 0.000000 0.000000 31.479319 0.938104 -0.120313 53.434138 8.185116 -4.308810 14.395510 23.950501 4.078770 0.000000 0.000000 0.000000 
-0.021194 0.927445 -0.027603 2.602441 -7.859015 -5.845242 1.765861 0.500518 5.351899 -2.702332 0.341111 1.795728 3.596330 8.369632 3.276315 0.000000 0.000000 0.000000 -8.614460 0.250612 2.042900 2.366655 0.031261 8.660170 -3.540214 -9.345349 1.776734 0.000000 0.000000 0.000000 6.849265 -1.210696 14.655682 -7.586607 2.458779 -22.460493 -5.374547 7.784577 24.885321 12.757533 -3.357764 -36.298816 0.000000 0.000000 0.000000 -22.711405 -15.381045 6.547718 -45.528029 -6.436227 -4.760032 -14.438676 -28.064469 4.704587 0.000000 0.000000 0.000000 31.438076 1.053692 -0.115372 53.516483 8.146513 -4.308714 14.560564 23.899227 4.094844 0.000000 0.000000 0.000000 
-0.021633 0.927441 -0.028499 2.619760 -7.817703 -6.009117 1.819635 0.520606 5.582791 -2.646105 0.333043 1.685591 3.598419 8.382314 3.309386 0.000000 0.000000 0.000000 -8.618352 0.244260 2.172385 2.535240 -0.003267 8.486356 -3.483802 -9.312901 2.025334 0.000000 0.000000 0.000000 6.683856 -1.217815 15.031302 -7.556050 2.451325 -22.507329 -5.409652 7.466752 24.614503 12.825955 -3.513851 -35.799511 0.000000 0.000000 0.000000 -22.730829 -15.303490 6.575637 -45.344170 -6.377675 -4.764159 -14.476512 -27.528158 4.621853 0.000000 0.000000 0.000000 31.415402 1.067154 -0.232345 53.716560 8.156586 -4.253878 14.593728 23.833896 4.075317 0.000000 0.000000 0.000000 
-0.022257 0.927332 -0.029833 2.512381 -8.053657 -6.196347 1.911590 0.529562 5.672088 -2.511215 0.313844 1.877204 3.680222 8.537590 3.282721 0.000000 0.000000 0.000000 -8.435946 0.234377 2.259714 2.626640 -0.014781 8.494170 -3.478107 -9.358389 2.182402 0.000000 0.000000 0.000000 6.475684 -1.209648 15.362648 -7.456696 2.415384 -22.685542 -5.308022 7.601466 24.629252 12.833808 -3.576934 -35.511069 0.000000 0.000000 0.000000 -22.803938 -15.154998 6.496452 -45.121029 -6.215408 -4.809125 -14.483297 -27.146319 4.552023 0.000000 0.000000 0.000000 31.406320 0.948053 -0.317480 53.825636 8.227009 -4.232910 14.740994 23.979247 4.137584 0.000000 0.000000 0.000000 
-0.022758 0.927519 -0.031418 2.435830 -8.363103 -6.510457 1.970891 0.536033 5.702607 -2.306561 0.282922 2.285362 3.780158 8.724108 3.231089 0.000000 0.000000 0.000000 -8.247469 0.223730 2.326545 2.717420 -0.022940 8.564604 -3.571878 -9.655520 2.418400 0.000000 0.000000 0.000000 6.353922 -1.224177 15.968093 -7.568255 2.445432 -22.648057 -5.172099 7.618538 24.423586 12.784920 -3.652047 -35.074403 0.000000 0.000000 0.000000 -22.895975 -15.077481 6.487661 -44.676611 -6.189852 -4.770517 -14.379967 -26.676075 4.437620 0.000000 0.000000 0.000000 31.432792 1.184738 -0.223151 53.743511 8.474231 -4.091242 14.491743 24.149937 4.107311 0.000000 0.000000 0.000000 
-0.022984 0.927525 -0.033062 2.451505 -8.585738 -6.829859 2.014988 0.534186 5.645475 -2.367114 0.291686 2.720862 3.863718 8.891957 3.269018 0.000000 0.000000 0.000000 -8.250608 0.222450 2.407808 2.797295 -0.027492 8.727026 -3.532136 -9.548545 2.371928 0.000000 0.000000 0.000000 6.203024 -1.230052 16.524508 -7.564137 2.447487 -22.621148 -5.178399 7.707959 24.262737 12.778729 -3.664053 -34.999949 0.000000 0.000000 0.000000 -22.870151 -14.957743 6.414403 -44.407294 -5.930719 -4.828423 -14.637416 -26.728798 4.505834 0.000000 0.000000 0.000000 31.384573 1.231961 -0.206202 53.683113 8.731915 -3.959659 14.452771 24.237887 4.110573 0.000000 0.000000 0.000000 
